<svg xmlns="http://www.w3.org/2000/svg" width="30" height="30" viewBox="0 0 30 30"><path fill="#CD201F" d="M0 28c0 1.105.895 2 2 2h26c1.105 0 2-.895 2-2V2c0-1.105-.895-2-2-2H2C.895 0 0 .895 0 2v26z"/><path opacity=".05" d="M28 1c.55 0 1 .45 1 1v26c0 .55-.45 1-1 1H2c-.55 0-1-.45-1-1V2c0-.55.45-1 1-1h26m0-1H2C.895 0 0 .895 0 2v26c0 1.105.895 2 2 2h26c1.105 0 2-.895 2-2V2c0-1.105-.896-2-2-2z"/><path opacity=".1" fill-rule="evenodd" clip-rule="evenodd" d="M28 0H2C.895 0 0 .896 0 2v1c0-1.104.895-2 2-2h26c1.105 0 2 .896 2 2V2c0-1.104-.896-2-2-2z"/><path opacity=".12" fill-rule="evenodd" clip-rule="evenodd" d="M12.944 12.99l4.716 3.15.662-.344-5.378-2.807z"/><path fill="#FFF" d="M24.753 12.02s-.194-1.372-.79-1.976c-.758-.793-1.606-.797-1.995-.843-2.786-.2-6.964-.2-6.964-.2h-.01s-4.177 0-6.962.2c-.39.047-1.237.05-1.994.844-.597.604-.79 1.976-.79 1.976s-.2 1.61-.2 3.222v1.51c0 1.61.2 3.222.2 3.222s.193 1.372.79 1.976c.757.793 1.752.768 2.195.85C9.825 22.954 15 23 15 23s4.182-.006 6.967-.208c.39-.046 1.237-.05 1.994-.843.598-.605.792-1.977.792-1.977s.2-1.61.2-3.222v-1.51c0-1.61-.2-3.22-.2-3.22zm-11.808 6.562V12.99l5.377 2.805-5.377 2.787z"/></svg>