<svg xmlns="http://www.w3.org/2000/svg" width="30" height="30" viewBox="0 0 30 30"><path fill="#DD4B39" d="M0 28c0 1.105.895 2 2 2h26c1.105 0 2-.895 2-2V2c0-1.105-.895-2-2-2H2C.895 0 0 .895 0 2v26z"/><g fill="#FFF"><path d="M11.534 16.638h3.957c-.453 1.838-1.853 2.863-3.99 2.863-2.528 0-4.584-2.018-4.584-4.5 0-2.48 2.056-4.5 4.583-4.5 1.104 0 2.17.392 3.004 1.103l1.902-2.147c-1.36-1.162-3.103-1.802-4.907-1.802-4.126 0-7.482 3.296-7.482 7.347 0 4.052 3.356 7.347 7.48 7.347 4.218 0 7.052-2.866 7.052-7.13v-1.424h-7.015v2.845zM27.455 13.767h-2.578V11.19h-1.875v2.577h-2.578v1.875h2.578v2.58h1.875v-2.58h2.578"/></g></svg>