<?xml version="1.0" encoding="UTF-8" standalone="no"?>
<!-- Created with Inkscape (http://www.inkscape.org/) -->

<svg
   xmlns:dc="http://purl.org/dc/elements/1.1/"
   xmlns:cc="http://creativecommons.org/ns#"
   xmlns:rdf="http://www.w3.org/1999/02/22-rdf-syntax-ns#"
   xmlns:svg="http://www.w3.org/2000/svg"
   xmlns="http://www.w3.org/2000/svg"
   xmlns:sodipodi="http://sodipodi.sourceforge.net/DTD/sodipodi-0.dtd"
   xmlns:inkscape="http://www.inkscape.org/namespaces/inkscape"
   width="13.087856mm"
   height="13.0628mm"
   viewBox="0 0 13.087856 13.0628"
   version="1.1"
   id="svg4719"
   inkscape:version="0.92.4 5da689c313, 2019-01-14"
   sodipodi:docname="share_github_disabled.svg">
  <defs
     id="defs4713" />
  <sodipodi:namedview
     id="base"
     pagecolor="#ffffff"
     bordercolor="#666666"
     borderopacity="1.0"
     inkscape:pageopacity="0.0"
     inkscape:pageshadow="2"
     inkscape:zoom="7.9195959"
     inkscape:cx="44.680168"
     inkscape:cy="-1.5053794"
     inkscape:document-units="mm"
     inkscape:current-layer="layer1"
     showgrid="false"
     inkscape:window-width="1920"
     inkscape:window-height="1016"
     inkscape:window-x="0"
     inkscape:window-y="27"
     inkscape:window-maximized="1" />
  <metadata
     id="metadata4716">
    <rdf:RDF>
      <cc:Work
         rdf:about="">
        <dc:format>image/svg+xml</dc:format>
        <dc:type
           rdf:resource="http://purl.org/dc/dcmitype/StillImage" />
        <dc:title></dc:title>
      </cc:Work>
    </rdf:RDF>
  </metadata>
  <g
     inkscape:label="Taso 1"
     inkscape:groupmode="layer"
     id="layer1"
     transform="translate(-40.296249,-62.103493)">
    <rect
       style="opacity:1;fill:#e4e1de;fill-opacity:1;stroke:none;stroke-width:0.32283914;stroke-miterlimit:4;stroke-dasharray:none;stroke-opacity:1"
       id="rect5272"
       width="13.087856"
       height="13.0628"
       x="40.296249"
       y="62.103493"
       rx="0"
       ry="0" />
    <path
       d="m 46.882604,64.10902 c -2.405857,0 -4.356966,1.950837 -4.356966,4.357498 0,1.924888 1.248405,3.55822 2.9799,4.134668 0.218006,0.03989 0.297448,-0.0947 0.297448,-0.210249 0,-0.103525 -0.0037,-0.377436 -0.006,-0.740966 -1.212016,0.26322 -1.467744,-0.584204 -1.467744,-0.584204 -0.198215,-0.503428 -0.483895,-0.637442 -0.483895,-0.637442 -0.395627,-0.270173 0.02996,-0.264819 0.02996,-0.264819 0.437353,0.03078 0.667399,0.449121 0.667399,0.449121 0.388674,0.6658 1.019959,0.473469 1.268196,0.361922 0.03958,-0.281403 0.152205,-0.47347 0.276589,-0.582339 -0.967533,-0.110205 -1.984815,-0.483895 -1.984815,-2.153601 0,-0.475873 0.169857,-0.864547 0.448592,-1.16922 -0.04496,-0.110213 -0.19447,-0.553185 0.04277,-1.153176 0,0 0.365668,-0.117157 1.198109,0.446453 0.347478,-0.09657 0.720365,-0.144713 1.090848,-0.146585 0.370217,0.0015 0.742838,0.05004 1.090847,0.146585 0.831911,-0.56361 1.19704,-0.446453 1.19704,-0.446453 0.237804,0.599991 0.08828,1.042963 0.0436,1.153176 0.279266,0.304673 0.447788,0.693347 0.447788,1.16922 0,1.673983 -1.018889,2.042327 -1.989363,2.150128 0.156223,0.134545 0.295583,0.400442 0.295583,0.807032 0,0.582332 -0.0053,1.052321 -0.0053,1.195168 0,0.116628 0.07864,0.252248 0.299602,0.209718 1.730161,-0.577525 2.977489,-2.209515 2.977489,-4.134137 0,-2.406661 -1.951109,-4.357498 -4.357762,-4.357498"
       style="fill:#c8c3bd;fill-opacity:1;fill-rule:evenodd;stroke:none;stroke-width:0.02674952"
       id="path16"
       inkscape:connector-curvature="0" />
  </g>
</svg>
