<svg xmlns="http://www.w3.org/2000/svg" width="30" height="30" viewBox="0 0 30 30"><path fill="#E4E1DE" d="M0 28c0 1.105.895 2 2 2h26c1.105 0 2-.895 2-2V2c0-1.105-.895-2-2-2H2C.895 0 0 .895 0 2v26z"/><path fill="#C8C3BD" d="M25 8.797c-.736.326-1.527.547-2.357.646.847-.508 1.498-1.312 1.804-2.27-.793.47-1.67.812-2.606.996-.747-.798-1.814-1.297-2.994-1.297-2.266 0-4.103 1.837-4.103 4.103 0 .32.036.635.106.935-3.41-.17-6.435-1.804-8.458-4.286-.353.606-.555 1.31-.555 2.063 0 1.424.724 2.68 1.825 3.415-.673-.02-1.305-.206-1.86-.513v.05c0 1.99 1.415 3.647 3.293 4.024-.344.094-.707.144-1.08.144-.265 0-.523-.026-.773-.074.522 1.63 2.037 2.816 3.833 2.85C9.67 20.684 7.9 21.34 5.98 21.34c-.332 0-.66-.02-.98-.057 1.816 1.164 3.973 1.844 6.29 1.844 7.547 0 11.675-6.253 11.675-11.675 0-.178-.004-.355-.012-.53.8-.58 1.497-1.302 2.047-2.125"/></svg>