<svg xmlns="http://www.w3.org/2000/svg" width="30" height="30" viewBox="0 0 30 30"><path fill="#125688" d="M0 28c0 1.105.895 2 2 2h26c1.105 0 2-.895 2-2V2c0-1.105-.895-2-2-2H2C.895 0 0 .895 0 2v26z"/><path opacity=".15" fill="#FFF" d="M0 28c0 1.105.895 2 2 2h26c1.105 0 2-.895 2-2V2c0-1.105-.895-2-2-2H2C.895 0 0 .895 0 2v26z"/><path fill="#FFF" d="M20.556 15c0-.485-.068-1.018-.182-1.468h1.572v7.817c0 .386-.31.7-.695.7H8.75c-.385 0-.697-.314-.697-.7V13.53h1.572c-.114.45-.182.983-.182 1.468 0 3.102 2.488 5.616 5.557 5.616 3.07 0 5.556-2.514 5.556-5.616m-9.03 0c0-1.938 1.556-3.51 3.474-3.51 1.918 0 3.473 1.572 3.473 3.51 0 1.938-1.555 3.51-3.473 3.51s-3.473-1.572-3.473-3.51m6.923-4.245v-2.1c0-.388.313-.7.7-.7h2.1c.386 0 .7.313.7.7v2.1c0 .387-.313.7-.7.7h-2.1c-.387 0-.7-.313-.7-.7M8.053 5.875c-1.15 0-2.083.943-2.083 2.106v14.04c0 1.162.933 2.105 2.083 2.105h13.893c1.15 0 2.083-.943 2.083-2.106V7.98c0-1.162-.934-2.105-2.084-2.105H8.053z"/></svg>