<svg xmlns="http://www.w3.org/2000/svg" width="30" height="30" viewBox="0 0 30 30"><path fill="#0077B5" d="M0 28c0 1.105.895 2 2 2h26c1.105 0 2-.895 2-2V2c0-1.105-.895-2-2-2H2C.895 0 0 .895 0 2v26z"/><path fill="#FFF" d="M4.445 11.247H8.9v14.316H4.444V11.247zM6.673 4.13c1.423 0 2.58 1.156 2.58 2.58 0 1.425-1.157 2.58-2.58 2.58-1.43 0-2.58-1.155-2.58-2.58 0-1.424 1.15-2.58 2.58-2.58M11.69 11.247h4.265v1.957h.06c.594-1.125 2.046-2.312 4.21-2.312 4.506 0 5.34 2.964 5.34 6.82v7.852h-4.45v-6.962c0-1.66-.028-3.796-2.312-3.796-2.315 0-2.67 1.81-2.67 3.677v7.08H11.69V11.248z"/></svg>