<svg xmlns="http://www.w3.org/2000/svg" width="30" height="30" viewBox="0 0 30 30"><path fill="#3B5998" d="M0 28c0 1.105.895 2 2 2h26c1.105 0 2-.895 2-2V2c0-1.105-.895-2-2-2H2C.895 0 0 .895 0 2v26z"/><path opacity=".05" d="M28 1c.55 0 1 .45 1 1v26c0 .55-.45 1-1 1H2c-.55 0-1-.45-1-1V2c0-.55.45-1 1-1h26m0-1H2C.895 0 0 .895 0 2v26c0 1.105.895 2 2 2h26c1.105 0 2-.895 2-2V2c0-1.105-.896-2-2-2z"/><path opacity=".1" fill-rule="evenodd" clip-rule="evenodd" d="M28 0H2C.895 0 0 .896 0 2v1c0-1.104.895-2 2-2h26c1.105 0 2 .896 2 2V2c0-1.104-.896-2-2-2z"/><path fill="#FFF" d="M20.7 30V19.382h3.9l.583-4.528H20.7v-2.89c0-1.312.364-2.205 2.244-2.205l2.398-.002v-4.05c-.415-.054-1.838-.177-3.494-.177-3.457 0-5.823 2.11-5.823 5.986v3.34h-3.91v4.527h3.91V30H20.7z"/></svg>