<?xml version="1.0" encoding="iso-8859-1"?>
<!-- Generator: Adobe Illustrator 19.0.0, SVG Export Plug-In . SVG Version: 6.00 Build 0)  -->
<svg version="1.1" id="Capa_1" xmlns="http://www.w3.org/2000/svg" xmlns:xlink="http://www.w3.org/1999/xlink" x="0px" y="0px"
	 viewBox="0 0 495.36 495.36" style="enable-background:new 0 0 495.36 495.36;" xml:space="preserve">
<g>
	<g>
		<path d="M247.467,0C110.76,0.118,0,110.973,0,247.68c0.235,136.776,111.117,247.563,247.893,247.68
			c136.79-0.118,247.584-111.103,247.467-247.893C495.242,110.677,384.257-0.118,247.467,0z M247.467,474.026
			C122.542,473.909,21.333,372.604,21.333,247.68C21.568,122.686,122.9,21.451,247.893,21.333
			c125.008,0.118,226.251,101.552,226.133,226.56S372.474,474.144,247.467,474.026z"/>
	</g>
</g>
<g>
	<g>
		<path d="M336.853,128.427c-2.76-2.045-6.349-2.603-9.6-1.493l-117.76,36.693c-4.467,1.405-7.495,5.558-7.467,10.24v126.72h-18.133
			c-15.823,0-28.683,12.764-28.8,28.587v11.307c0.117,15.822,12.977,28.587,28.8,28.587H195.2c15.788,0,28.587-12.799,28.587-28.587
			V231.467l96.427-30.293v69.973H301.44c-15.788,0-28.587,12.799-28.587,28.587v11.947c0.116,15.74,12.847,28.471,28.587,28.587
			h10.453c15.904,0.236,28.988-12.465,29.224-28.369c0.001-0.072,0.002-0.145,0.002-0.217V136.96
			C341.12,133.602,339.539,130.441,336.853,128.427z M202.453,340.48c0,4.006-3.247,7.253-7.253,7.253h-11.307
			c-4.042,0.002-7.351-3.213-7.467-7.253L176,329.173c-0.007-4.124,3.331-7.472,7.454-7.479c0.146,0,0.293,0.004,0.439,0.012h18.56
			V340.48z M319.787,178.773l-96.427,30.293v-27.52l96.427-30.08V178.773z M319.787,311.68c-0.115,4.04-3.425,7.255-7.467,7.253
			h-11.307c-4.006,0-7.253-3.247-7.253-7.253v-11.307c0-4.006,3.247-7.253,7.253-7.253h18.773V311.68z"/>
	</g>
</g>
<g>
</g>
<g>
</g>
<g>
</g>
<g>
</g>
<g>
</g>
<g>
</g>
<g>
</g>
<g>
</g>
<g>
</g>
<g>
</g>
<g>
</g>
<g>
</g>
<g>
</g>
<g>
</g>
<g>
</g>
</svg>
