<?xml version="1.0" encoding="iso-8859-1"?>
<!-- Generator: Adobe Illustrator 19.0.0, SVG Export Plug-In . SVG Version: 6.00 Build 0)  -->
<svg version="1.1" id="Capa_1" xmlns="http://www.w3.org/2000/svg" xmlns:xlink="http://www.w3.org/1999/xlink" x="0px" y="0px"
	 viewBox="0 0 495.36 495.36" style="enable-background:new 0 0 495.36 495.36;" xml:space="preserve">
<g>
	<g>
		<path d="M247.467,0C110.677,0.118-0.118,111.104,0,247.893c0.118,136.79,111.103,247.584,247.893,247.467
			C384.6,495.242,495.36,384.387,495.36,247.68C495.125,110.904,384.242,0.117,247.467,0z M247.467,474.027v0.213
			C122.459,474.122,21.216,372.688,21.334,247.68c0.118-125.008,101.552-226.251,226.56-226.133
			c124.841,0.118,226.015,101.292,226.133,226.133C473.792,372.674,372.46,473.909,247.467,474.027z"/>
	</g>
</g>
<g>
	<g>
		<path d="M331.031,109.163c-22.139-22.236-52.187-34.793-83.564-34.922c-65.39,0.103-118.317,53.195-118.214,118.586
			c0.05,31.605,12.733,61.879,35.227,84.081c15.912,17.535,24.799,40.322,24.96,64c0,5.891,4.776,10.667,10.667,10.667h95.36
			c5.891,0,10.667-4.776,10.667-10.667c-0.14-23.656,8.617-46.499,24.533-64C377.089,230.686,377.252,155.584,331.031,109.163z
			 M316.885,259.968c-0.659,0.678-1.327,1.346-2.005,2.005l0.213,0.64c-17.435,18.884-28.028,43.073-30.08,68.693H257.92v-69.12
			l5.12,5.12c4.148,4.183,10.902,4.21,15.085,0.062c0.021-0.021,0.041-0.041,0.062-0.062l23.253-23.253
			c4.183-4.183,4.183-10.964,0-15.147c-4.183-4.183-10.964-4.183-15.147,0l-15.573,15.787l-15.787-15.787l-1.707-1.067l-1.92-1.493
			h-1.493h-2.347h-1.493h-2.56l-1.707,1.067l-1.707,1.28l-15.36,15.573l-15.573-15.573c-4.183-4.183-10.964-4.183-15.147,0
			c-4.183,4.183-4.183,10.964,0,15.147l23.253,23.253c1.969,2.01,4.653,3.16,7.467,3.2c2.814-0.04,5.497-1.19,7.467-3.2l4.48-4.693
			v68.693H209.92c-2.226-25.743-12.873-50.036-30.293-69.12c-38.456-37.349-39.354-98.802-2.005-137.258
			c37.349-38.456,98.802-39.354,137.258-2.005S354.234,221.512,316.885,259.968z"/>
	</g>
</g>
<g>
	<g>
		<path d="M294.187,367.147h-0.427h-92.587c-5.891,0-10.667,4.776-10.667,10.667s4.776,10.667,10.667,10.667h14.293
			c0,17.673,14.327,32,32,32s32-14.327,32-32h14.72c5.891,0,10.667-4.776,10.667-10.667S300.078,367.147,294.187,367.147z
			 M247.04,399.147c-5.891,0-10.667-4.776-10.667-10.667h21.333C257.707,394.371,252.931,399.147,247.04,399.147z"/>
	</g>
</g>
<g>
</g>
<g>
</g>
<g>
</g>
<g>
</g>
<g>
</g>
<g>
</g>
<g>
</g>
<g>
</g>
<g>
</g>
<g>
</g>
<g>
</g>
<g>
</g>
<g>
</g>
<g>
</g>
<g>
</g>
</svg>
