<?xml version="1.0" encoding="iso-8859-1"?>
<!-- Generator: Adobe Illustrator 19.0.0, SVG Export Plug-In . SVG Version: 6.00 Build 0)  -->
<svg version="1.1" id="Capa_1" xmlns="http://www.w3.org/2000/svg" xmlns:xlink="http://www.w3.org/1999/xlink" x="0px" y="0px"
	 viewBox="0 0 495.36 495.36" style="enable-background:new 0 0 495.36 495.36;" xml:space="preserve">
<g>
	<g>
		<path d="M247.467,0C110.677,0.118-0.118,111.104,0,247.893c0.118,136.79,111.103,247.584,247.893,247.467
			C384.6,495.242,495.36,384.387,495.36,247.68C495.008,110.953,384.194,0.235,247.467,0z M247.467,474.027v0.213
			C122.459,474.122,21.216,372.688,21.334,247.68c0.118-125.008,101.552-226.251,226.56-226.133
			c124.841,0.118,226.015,101.292,226.133,226.133C473.792,372.674,372.46,473.909,247.467,474.027z"/>
	</g>
</g>
<g>
	<g>
		<path d="M349.013,320.853l-28.16-30.507c-2.165-1.84-4.849-2.958-7.68-3.2c-2.607,0.033-5.111,1.02-7.04,2.773l-16-15.573
			c24.335-32.375,21.437-77.658-6.827-106.667c-15.377-15.391-36.271-23.994-58.027-23.893c-21.828-0.58-42.971,7.646-58.667,22.827
			c-31.866,32.039-31.866,83.801,0,115.84c15.214,15.556,36.055,24.323,57.813,24.32c18.007,0.252,35.581-5.53,49.92-16.427
			L291.2,307.2c-4.066,4.148-4.066,10.786,0,14.933l28.373,28.373c1.969,2.01,4.653,3.16,7.467,3.2c2.878-0.03,5.632-1.177,7.68-3.2
			l14.293-14.72C353.079,331.639,353.079,325.001,349.013,320.853z M267.307,266.453c-11.237,11.464-26.614,17.922-42.667,17.92
			c-16.052,0.002-31.43-6.456-42.667-17.92c-23.313-23.667-23.313-61.666,0-85.333c11.299-11.345,26.655-17.718,42.667-17.707
			c16.012-0.011,31.367,6.362,42.667,17.707C290.506,204.834,290.506,242.739,267.307,266.453z"/>
	</g>
</g>
<g>
</g>
<g>
</g>
<g>
</g>
<g>
</g>
<g>
</g>
<g>
</g>
<g>
</g>
<g>
</g>
<g>
</g>
<g>
</g>
<g>
</g>
<g>
</g>
<g>
</g>
<g>
</g>
<g>
</g>
</svg>
