<?xml version="1.0" encoding="iso-8859-1"?>
<!-- Generator: Adobe Illustrator 19.0.0, SVG Export Plug-In . SVG Version: 6.00 Build 0)  -->
<svg version="1.1" id="Capa_1" xmlns="http://www.w3.org/2000/svg" xmlns:xlink="http://www.w3.org/1999/xlink" x="0px" y="0px"
	 viewBox="0 0 495.787 495.787" style="enable-background:new 0 0 495.787 495.787;" xml:space="preserve">
<g>
	<g>
		<path d="M247.893,0C110.986,0,0,110.986,0,247.893s110.986,247.893,247.893,247.893s247.893-110.986,247.893-247.893
			C495.669,111.034,384.752,0.118,247.893,0z M247.893,474.453L247.893,474.453c-125.126,0-226.56-101.434-226.56-226.56
			s101.434-226.56,226.56-226.56c125.126,0,226.56,101.434,226.56,226.56C474.336,372.97,372.97,474.336,247.893,474.453z"/>
	</g>
</g>
<g>
	<g>
		<path d="M340.267,263.68l-4.48-5.547L257.28,100.907c-2.686-5.243-9.114-7.316-14.357-4.63c-1.99,1.02-3.61,2.639-4.63,4.63
			L162.56,253.44c-1.917,3.157-3.628,6.435-5.12,9.813c-0.112,0.85-0.112,1.71,0,2.56c-4.387,11.513-6.628,23.733-6.613,36.053
			c0,54.433,44.127,98.56,98.56,98.56s98.56-44.127,98.56-98.56C347.981,288.751,345.369,275.763,340.267,263.68z M247.893,379.52
			c-42.568,0-77.109-34.446-77.227-77.013c0.009-10.162,1.964-20.227,5.76-29.653c1.336-2.994,2.831-5.913,4.48-8.747
			l66.987-134.613l66.773,133.547l2.133,4.48l2.56,5.333c3.869,9.329,5.828,19.34,5.76,29.44
			C325.12,344.945,290.544,379.52,247.893,379.52z"/>
	</g>
</g>
<g>
	<g>
		<path d="M219.307,299.521c-0.001-0.071-0.001-0.143-0.001-0.214h-21.333c0.117,27.487,22.433,49.707,49.92,49.707V327.68
			C232.224,327.798,219.425,315.191,219.307,299.521z"/>
	</g>
</g>
<g>
</g>
<g>
</g>
<g>
</g>
<g>
</g>
<g>
</g>
<g>
</g>
<g>
</g>
<g>
</g>
<g>
</g>
<g>
</g>
<g>
</g>
<g>
</g>
<g>
</g>
<g>
</g>
<g>
</g>
</svg>
