<?xml version="1.0" encoding="iso-8859-1"?>
<!-- Generator: Adobe Illustrator 19.0.0, SVG Export Plug-In . SVG Version: 6.00 Build 0)  -->
<svg version="1.1" id="Capa_1" xmlns="http://www.w3.org/2000/svg" xmlns:xlink="http://www.w3.org/1999/xlink" x="0px" y="0px"
	 viewBox="0 0 495.36 495.36" style="enable-background:new 0 0 495.36 495.36;" xml:space="preserve">
<g>
	<g>
		<path d="M247.467,0C110.677,0.118-0.118,111.104,0,247.893c0.118,136.79,111.103,247.584,247.893,247.467
			C384.6,495.242,495.36,384.387,495.36,247.68C495.125,110.904,384.242,0.117,247.467,0z M311.815,464.718
			c-20.889,6.186-42.563,9.322-64.349,9.309v0.213c-89.386-0.098-170.36-52.743-206.72-134.4h244.48l-34.133,33.92l14.933,15.147
			l60.16-59.733l-7.467-7.467l-52.693-52.693L250.88,284.16l34.347,34.56h-252.8C-6.657,199.979,57.918,72.037,176.659,32.953
			C289.574-4.213,412.001,52.302,456.96,162.347H171.733l40.32-40.107l-15.147-15.147l-58.667,57.813l-7.467,7.467l66.133,66.133
			l15.147-15.147l-40.533-39.68h292.907C499.891,303.429,431.564,429.254,311.815,464.718z"/>
	</g>
</g>
<g>
</g>
<g>
</g>
<g>
</g>
<g>
</g>
<g>
</g>
<g>
</g>
<g>
</g>
<g>
</g>
<g>
</g>
<g>
</g>
<g>
</g>
<g>
</g>
<g>
</g>
<g>
</g>
<g>
</g>
</svg>
