<?xml version="1.0" encoding="iso-8859-1"?>
<!-- Generator: Adobe Illustrator 19.0.0, SVG Export Plug-In . SVG Version: 6.00 Build 0)  -->
<svg version="1.1" id="Capa_1" xmlns="http://www.w3.org/2000/svg" xmlns:xlink="http://www.w3.org/1999/xlink" x="0px" y="0px"
	 viewBox="0 0 495.787 495.787" style="enable-background:new 0 0 495.787 495.787;" xml:space="preserve">
<g>
	<g>
		<path d="M247.893,0C110.986,0,0,110.986,0,247.893s110.986,247.893,247.893,247.893s247.893-110.986,247.893-247.893
			C495.669,111.034,384.752,0.118,247.893,0z M247.893,474.453L247.893,474.453c-125.126,0-226.56-101.434-226.56-226.56
			s101.434-226.56,226.56-226.56c125.126,0,226.56,101.434,226.56,226.56C474.336,372.97,372.97,474.336,247.893,474.453z"/>
	</g>
</g>
<g>
	<g>
		<path d="M348.587,147.413c-43.224,0.114-82.477,25.229-100.693,64.427c-18.341-39.031-57.568-63.964-100.693-64H98.56v48.213
			c0.117,61.454,49.906,111.243,111.36,111.36h75.947c61.502,0,111.36-49.858,111.36-111.36v0v-48.64H348.587z M237.227,286.08
			H209.92c-49.672-0.117-89.909-40.355-90.027-90.027v-27.307H147.2c49.72,0,90.027,40.306,90.027,90.027V286.08z M375.893,196.053
			c0,49.72-40.306,90.027-90.027,90.027H258.56v-27.307c0.117-49.672,40.355-89.909,90.027-90.027h27.307V196.053z"/>
	</g>
</g>
<g>
	<g>
		<path d="M237.227,319.787v56.107v34.347c0,5.891,4.776,10.667,10.667,10.667s10.667-4.776,10.667-10.667v-90.453H237.227z"/>
	</g>
</g>
<g>
</g>
<g>
</g>
<g>
</g>
<g>
</g>
<g>
</g>
<g>
</g>
<g>
</g>
<g>
</g>
<g>
</g>
<g>
</g>
<g>
</g>
<g>
</g>
<g>
</g>
<g>
</g>
<g>
</g>
</svg>
