<?xml version="1.0" encoding="iso-8859-1"?>
<!-- Generator: Adobe Illustrator 19.0.0, SVG Export Plug-In . SVG Version: 6.00 Build 0)  -->
<svg version="1.1" id="Capa_1" xmlns="http://www.w3.org/2000/svg" xmlns:xlink="http://www.w3.org/1999/xlink" x="0px" y="0px"
	 viewBox="0 0 495.787 495.787" style="enable-background:new 0 0 495.787 495.787;" xml:space="preserve">
<g>
	<g>
		<path d="M247.893,0C110.986,0,0,110.986,0,247.893s110.986,247.893,247.893,247.893s247.893-110.986,247.893-247.893
			C495.552,111.083,384.704,0.235,247.893,0z M247.893,474.453v0.213c-125.126,0-226.56-101.434-226.56-226.56
			s101.435-226.56,226.56-226.56c125.042,0,226.442,101.304,226.56,226.347C474.336,372.97,372.97,474.336,247.893,474.453z"/>
	</g>
</g>
<g>
	<g>
		<path d="M373.76,259.413l-0.64,0.213c0.115-1.918,0.115-3.842,0-5.76c0.191-24.656-15.334-46.7-38.613-54.827
			c-15.967-47.708-67.586-73.44-115.294-57.473c-26.288,8.798-47.14,29.088-56.652,55.127
			c-44.921,7.102-75.579,49.275-68.477,94.196c6.147,38.881,38.953,67.975,78.29,69.431h178.133
			c29.337,0.03,53.145-23.728,53.175-53.065C403.703,286.891,392.08,268.307,373.76,259.413z M380.742,314.725
			c-3.696,13.906-16.273,23.595-30.662,23.621l-0.213,0.853H173.013c-33.697,0.589-61.491-26.25-62.08-59.947
			c-0.589-33.697,26.25-61.491,59.947-62.08c4.561-0.303,8.422-3.477,9.6-7.893c9.455-37.349,47.397-59.962,84.747-50.507
			c24.831,6.286,44.221,25.675,50.507,50.507c0.969,3.966,4.117,7.03,8.107,7.893c16.698,3.805,28.501,18.714,28.373,35.84
			c-0.04,3.255-0.543,6.487-1.493,9.6c-1.619,5.664,1.661,11.568,7.325,13.187c0.047,0.013,0.094,0.027,0.142,0.039
			C375.153,280.35,385.251,297.759,380.742,314.725z"/>
	</g>
</g>
<g>
</g>
<g>
</g>
<g>
</g>
<g>
</g>
<g>
</g>
<g>
</g>
<g>
</g>
<g>
</g>
<g>
</g>
<g>
</g>
<g>
</g>
<g>
</g>
<g>
</g>
<g>
</g>
<g>
</g>
</svg>
