<?xml version="1.0" encoding="iso-8859-1"?>
<!-- Generator: Adobe Illustrator 19.0.0, SVG Export Plug-In . SVG Version: 6.00 Build 0)  -->
<svg version="1.1" id="Capa_1" xmlns="http://www.w3.org/2000/svg" xmlns:xlink="http://www.w3.org/1999/xlink" x="0px" y="0px"
	 viewBox="0 0 495.36 495.36" style="enable-background:new 0 0 495.36 495.36;" xml:space="preserve">
<g>
	<g>
		<path d="M247.467,0C110.76,0.118,0,110.973,0,247.68c0.235,136.776,111.117,247.563,247.893,247.68
			c136.79-0.118,247.584-111.103,247.467-247.893C495.242,110.677,384.257-0.118,247.467,0z M247.467,474.026
			C122.542,473.909,21.333,372.604,21.333,247.68C21.568,122.686,122.9,21.451,247.893,21.333
			c125.008,0.118,226.251,101.552,226.133,226.56S372.474,474.144,247.467,474.026z"/>
	</g>
</g>
<g>
	<g>
		<path d="M329.978,233.008c-5.891-45.452-47.513-77.523-92.965-71.632c-45.452,5.891-77.523,47.513-71.632,92.965
			c4.844,37.372,34.26,66.788,71.632,71.632V455.68c0,5.891,4.776,10.667,10.667,10.667c5.891,0,10.667-4.776,10.667-10.667V325.973
			C303.799,320.082,335.869,278.46,329.978,233.008z M247.893,305.707c-34.05,0-61.653-27.603-61.653-61.653
			c0-34.05,27.603-61.653,61.653-61.653c34.05,0,61.653,27.603,61.653,61.653C309.547,278.103,281.944,305.707,247.893,305.707z"/>
	</g>
</g>
<g>
	<g>
		<path d="M209.707,243.2h21.333c0.115-9.26,7.594-16.738,16.853-16.853v-21.333C226.803,205.013,209.707,222.11,209.707,243.2z"/>
	</g>
</g>
<g>
</g>
<g>
</g>
<g>
</g>
<g>
</g>
<g>
</g>
<g>
</g>
<g>
</g>
<g>
</g>
<g>
</g>
<g>
</g>
<g>
</g>
<g>
</g>
<g>
</g>
<g>
</g>
<g>
</g>
</svg>
