<?xml version="1.0" encoding="iso-8859-1"?>
<!-- Generator: Adobe Illustrator 19.0.0, SVG Export Plug-In . SVG Version: 6.00 Build 0)  -->
<svg version="1.1" id="Capa_1" xmlns="http://www.w3.org/2000/svg" xmlns:xlink="http://www.w3.org/1999/xlink" x="0px" y="0px"
	 viewBox="0 0 495.787 495.787" style="enable-background:new 0 0 495.787 495.787;" xml:space="preserve">
<g>
	<g>
		<path d="M247.893,0C110.986,0,0,110.986,0,247.893s110.986,247.893,247.893,247.893s247.893-110.986,247.893-247.893
			C495.669,111.034,384.752,0.118,247.893,0z M247.893,474.453L247.893,474.453c-125.126,0-226.56-101.434-226.56-226.56
			s101.434-226.56,226.56-226.56c125.126,0,226.56,101.434,226.56,226.56C474.336,372.97,372.97,474.336,247.893,474.453z"/>
	</g>
</g>
<g>
	<g>
		<path d="M335.547,129.239c-25.157-19.389-55.896-30.148-87.654-30.679c-81.532-0.005-147.631,66.085-147.637,147.617
			c0,0.572,0.003,1.144,0.01,1.717c0,1.92,0,3.84,0,5.76v133.12c0.049,5.891,4.865,10.626,10.755,10.577
			c2.464-0.021,4.845-0.894,6.738-2.471l37.547-31.787c64.577,49.772,157.275,37.77,207.047-26.807
			C412.126,271.709,400.124,179.011,335.547,129.239z M248.106,373.334c-0.071,0-0.142,0-0.212-0.001v-0.853
			c-31.547-0.13-61.936-11.905-85.333-33.067c-4.027-3.538-10.053-3.538-14.08,0l-26.453,23.467V251.307c0-1.493,0-2.987,0-4.48
			c0.118-69.75,56.757-126.197,126.507-126.079c69.75,0.118,126.197,56.757,126.079,126.507
			C374.495,317.005,317.856,373.452,248.106,373.334z"/>
	</g>
</g>
<g>
</g>
<g>
</g>
<g>
</g>
<g>
</g>
<g>
</g>
<g>
</g>
<g>
</g>
<g>
</g>
<g>
</g>
<g>
</g>
<g>
</g>
<g>
</g>
<g>
</g>
<g>
</g>
<g>
</g>
</svg>
