<?xml version="1.0" encoding="iso-8859-1"?>
<!-- Generator: Adobe Illustrator 19.0.0, SVG Export Plug-In . SVG Version: 6.00 Build 0)  -->
<svg version="1.1" id="Capa_1" xmlns="http://www.w3.org/2000/svg" xmlns:xlink="http://www.w3.org/1999/xlink" x="0px" y="0px"
	 viewBox="0 0 495.787 495.787" style="enable-background:new 0 0 495.787 495.787;" xml:space="preserve">
<g>
	<g>
		<path d="M247.893,0C110.986,0,0,110.986,0,247.893c0.118,136.859,111.034,247.776,247.893,247.893
			c136.908,0,247.893-110.986,247.893-247.893S384.801,0,247.893,0z M247.893,474.453c-125.126,0-226.56-101.434-226.56-226.56
			c0.118-125.077,101.483-226.442,226.56-226.56c125.126,0,226.56,101.434,226.56,226.56S373.019,474.453,247.893,474.453z"/>
	</g>
</g>
<g>
	<g>
		<path d="M292.693,166.4c-16.229-0.046-32.03,5.196-45.013,14.933c-12.844-9.691-28.497-14.933-44.587-14.933
			c-36.919-1.336-68.12,27.115-70.187,64c-0.141,13.479,4.381,26.593,12.8,37.12l0.427,1.707v1.28L228.693,368
			c4.844,5.446,11.926,8.357,19.2,7.893c6.969,0.069,13.581-3.079,17.92-8.533l81.707-96.427l1.92-2.133l1.067-1.493
			c8.064-10.624,12.479-23.569,12.587-36.907C361.026,193.429,329.694,164.945,292.693,166.4z M333.227,254.933c0,0,0,0-1.493,1.707
			L249.6,354.56h-3.627l-81.707-97.067L162.56,256c-5.424-6.848-8.291-15.373-8.107-24.107c1.15-25.659,22.883-45.528,48.542-44.378
			c0.033,0.001,0.065,0.003,0.098,0.004c13.909-0.158,27.292,5.303,37.12,15.147c2.124,1.829,4.883,2.749,7.68,2.56
			c2.888,0.017,5.659-1.138,7.68-3.2c9.907-9.855,23.36-15.314,37.333-15.147c25.232-1.474,47.023,17.474,49.067,42.667
			C341.977,238.749,338.897,247.686,333.227,254.933z"/>
	</g>
</g>
<g>
</g>
<g>
</g>
<g>
</g>
<g>
</g>
<g>
</g>
<g>
</g>
<g>
</g>
<g>
</g>
<g>
</g>
<g>
</g>
<g>
</g>
<g>
</g>
<g>
</g>
<g>
</g>
<g>
</g>
</svg>
